<svg width="34" height="29" viewBox="0 0 34 29" fill="none" xmlns="http://www.w3.org/2000/svg">
<path d="M31.7477 14.9091C31.6448 15.0229 31.5381 15.1373 31.4314 15.2473L28.2813 18.6917C27.3613 19.6275 25.8516 19.6356 24.9216 18.7092C24.006 17.7972 23.9979 16.3213 24.9028 15.3992L28.1169 11.8848C29.707 10.267 29.7622 7.67345 28.307 5.94564C28.2236 5.84625 28.1301 5.75311 28.0303 5.66997C26.2958 4.22033 23.6916 4.27534 22.0683 5.85938L13.8303 13.8908C12.9147 14.7872 11.4162 14.7722 10.4818 13.864L10.4668 13.8452C9.55124 12.9332 9.54371 11.486 10.4517 10.5971L18.6935 2.55815C18.8039 2.45188 18.9188 2.34561 19.033 2.24309C22.5075 -0.808083 27.8866 -0.744947 31.3718 2.42313C31.4396 2.48501 31.5055 2.55065 31.5676 2.61816C34.7472 6.09067 34.8112 11.4485 31.7483 14.9098L31.7477 14.9091Z" fill="#007F5A"/>
<path d="M21.8062 24.1763C23.1166 24.1763 24.1789 23.1181 24.1789 21.8128C24.1789 20.5074 23.1166 19.4492 21.8062 19.4492C20.4959 19.4492 19.4336 20.5074 19.4336 21.8128C19.4336 23.1181 20.4959 24.1763 21.8062 24.1763Z" fill="#18441F"/>
<path d="M18.7223 28.3315C18.2749 28.7803 17.6963 29.0054 17.1134 29.0016C16.5273 29.0016 15.9443 28.7734 15.5007 28.324L2.5789 15.2391C2.47348 15.1328 2.36869 15.0184 2.26703 14.9041C-0.844814 11.414 -0.75508 6.01744 2.54878 2.67183C5.3111 -0.125548 9.49474 -0.650643 12.8024 1.1003C12.9116 1.15343 13.0164 1.2147 13.1218 1.27533C13.1255 1.27908 13.1293 1.27908 13.1293 1.28283C13.738 1.69791 14.1365 2.39428 14.1365 3.18568C14.1365 4.45278 13.1067 5.48422 11.8398 5.48422C11.4714 5.48422 11.1219 5.3967 10.8138 5.24043C10.7611 5.20604 10.7084 5.17979 10.6556 5.15291C9.06928 4.34589 7.08885 4.60844 5.77734 5.9368C4.1389 7.60023 4.14267 10.3138 5.7924 11.9879L18.7104 25.0684C19.6015 25.9704 19.6084 27.4282 18.7217 28.3302L18.7223 28.3315Z" fill="#86C175"/>
</svg>
