<svg width="125" height="125" viewBox="0 0 125 125" fill="none" xmlns="http://www.w3.org/2000/svg">
<path d="M62.5 125C97.0178 125 125 97.0178 125 62.5C125 27.9822 97.0178 0 62.5 0C27.9822 0 0 27.9822 0 62.5C0 97.0178 27.9822 125 62.5 125Z" fill="white"/>
<path d="M94.5148 52.7C94.2906 52.949 94.0595 53.1965 93.8271 53.4373L86.9882 60.9432C84.991 62.983 81.7133 63.0009 79.6955 60.9817C77.7079 58.9942 77.69 55.7769 79.6542 53.7674L86.632 46.1087C90.0844 42.5834 90.2041 36.9302 87.046 33.1656C86.8644 32.9496 86.6609 32.746 86.4449 32.5645C82.6789 29.405 77.0257 29.5247 73.5017 32.9785L55.6179 50.4814C53.6303 52.4359 50.3773 52.4029 48.3485 50.4236L48.3155 50.3823C46.3279 48.3948 46.3114 45.2408 48.2825 43.3028L66.1746 25.7834C66.4153 25.551 66.6629 25.3199 66.9118 25.0957C74.4549 18.4453 86.1327 18.5842 93.6991 25.4877C93.8463 25.6225 93.9894 25.7655 94.1241 25.9127C101.028 33.4806 101.165 45.1569 94.5162 52.7H94.5148Z" fill="#007F5A"/>
<path d="M34.8588 104.629H32.3885V103.318C31.775 104.199 30.7063 104.76 29.4972 104.76C27.2373 104.76 25.6074 103.186 25.6074 100.34V94.2539H28.0599V99.9649C28.0599 101.632 28.9182 102.53 30.2152 102.53C31.5123 102.53 32.3871 101.632 32.3871 99.9649V94.2539H34.8575V104.628L34.8588 104.629Z" fill="#081A25"/>
<path d="M44.1698 98.899C44.1698 97.2319 43.2991 96.3337 41.9842 96.3337C40.6693 96.3337 39.7642 97.2333 39.7642 98.899V104.629H37.2773V94.2554H39.7642V95.547C40.4038 94.6667 41.4698 94.1055 42.7311 94.1055C45.0226 94.1055 46.6567 95.679 46.6567 98.5441V104.631H44.1698V98.9004V98.899Z" fill="#081A25"/>
<path d="M48.8555 91.4803C48.8555 90.6193 49.4868 89.9453 50.3616 89.9453C51.2364 89.9453 51.8677 90.6193 51.8677 91.4803C51.8677 92.3414 51.2199 93.0154 50.3616 93.0154C49.5033 93.0154 48.8555 92.3414 48.8555 91.4803ZM49.1182 94.2519H51.5706V104.626H49.1182V94.2519Z" fill="#081A25"/>
<path d="M54.622 96.4067H53.4336V94.2527H54.622V91.6875H57.1611V94.2527H59.3935V96.4067H57.1611V101.426C57.1611 102.119 57.4307 102.419 58.223 102.419H59.3935V104.628H57.809C55.8998 104.628 54.622 103.785 54.622 101.407V96.4067Z" fill="#081A25"/>
<path d="M65.1127 104.794C62.2916 104.794 60.2422 102.697 60.2422 99.4381C60.2422 96.1796 62.2394 94.082 65.1127 94.082C67.9861 94.082 69.8952 96.1232 69.8952 99.2125C69.8952 99.5495 69.8774 99.8865 69.8251 100.224H62.7304C62.8528 101.759 63.8335 102.621 65.0605 102.621C66.1113 102.621 66.689 102.06 67.0054 101.367H69.6504C69.125 103.277 67.5129 104.793 65.1127 104.793V104.794ZM62.7483 98.4643H67.3561C67.3217 97.0971 66.3053 96.236 65.044 96.236C63.8707 96.236 62.9422 97.0407 62.7483 98.4643Z" fill="#081A25"/>
<path d="M75.2082 94.0848C76.6718 94.0848 77.6745 94.8716 78.2164 95.7326V94.2526H80.5341V104.626H78.2164V103.109C77.6745 104.009 76.6387 104.794 75.1917 104.794C72.8906 104.794 71.0488 102.64 71.0488 99.401C71.0488 96.1617 72.8892 94.082 75.2082 94.082V94.0848ZM75.7997 96.3887C74.5673 96.3887 73.3995 97.4368 73.3995 99.4037C73.3995 101.371 74.5659 102.493 75.7997 102.493C77.0335 102.493 78.2164 101.406 78.2164 99.4409C78.2164 97.4753 77.0651 96.3887 75.7997 96.3887Z" fill="#081A25"/>
<path d="M96.7466 98.899C96.7466 97.2512 95.8745 96.3901 94.5568 96.3901C93.2391 96.3901 92.3492 97.2512 92.3492 98.899V104.629H89.8568V98.899C89.8568 97.2512 88.9848 96.3901 87.6671 96.3901C86.3494 96.3901 85.4416 97.2512 85.4416 98.899V104.629H82.9492V94.2554H85.4416V95.5098C86.0647 94.6488 87.1141 94.1055 88.3424 94.1055C89.8733 94.1055 91.1374 94.7987 91.8127 96.0903C92.4537 94.9101 93.7535 94.1055 95.195 94.1055C97.5622 94.1055 99.2348 95.679 99.2348 98.5441V104.631H96.7424V98.9004L96.7466 98.899Z" fill="#081A25"/>
<path d="M72.9343 72.896C75.7792 72.896 78.0855 70.5898 78.0855 67.7449C78.0855 64.9 75.7792 62.5938 72.9343 62.5938C70.0894 62.5938 67.7832 64.9 67.7832 67.7449C67.7832 70.5898 70.0894 72.896 72.9343 72.896Z" fill="#18441F"/>
<path d="M66.238 81.9514C65.2669 82.9308 64.0111 83.4191 62.7456 83.4108C61.4733 83.4108 60.2079 82.9129 59.2451 81.9349L31.1923 53.42C30.964 53.1876 30.7357 52.9386 30.5156 52.6897C23.7593 45.0833 23.9546 33.323 31.1277 26.033C37.1248 19.937 46.207 18.7926 53.3869 22.6081C53.6235 22.7237 53.8519 22.8571 54.0802 22.9891C54.0884 22.9974 54.0967 22.9974 54.0967 23.0056C55.4185 23.9093 56.2837 25.4278 56.2837 27.1527C56.2837 29.9146 54.0485 32.1621 51.2976 32.1621C50.4985 32.1621 49.7392 31.971 49.0707 31.6312C48.9565 31.5569 48.8424 31.4992 48.7282 31.44C45.2854 29.6822 40.9843 30.2544 38.1371 33.1484C34.5801 36.7727 34.587 42.6872 38.1701 46.3364L66.2146 74.843C68.1485 76.8085 68.165 79.9859 66.2393 81.9514H66.238Z" fill="#86C175"/>
</svg>
