<svg width="22" height="22" viewBox="0 0 22 22" fill="none" xmlns="http://www.w3.org/2000/svg">
<circle cx="11" cy="11" r="11" fill="#08160A"/>
<path d="M11.0016 7.41058C9.01517 7.41058 7.41294 9.01317 7.41294 11C7.41294 12.9868 9.01517 14.5894 11.0016 14.5894C12.988 14.5894 14.5902 12.9868 14.5902 11C14.5902 9.01317 12.988 7.41058 11.0016 7.41058ZM11.0016 13.3336C9.7179 13.3336 8.66849 12.2871 8.66849 11C8.66849 9.71293 9.71478 8.66641 11.0016 8.66641C12.2883 8.66641 13.3346 9.71293 13.3346 11C13.3346 12.2871 12.2852 13.3336 11.0016 13.3336ZM15.574 7.26375C15.574 7.72922 15.1992 8.10097 14.737 8.10097C14.2716 8.10097 13.8999 7.7261 13.8999 7.26375C13.8999 6.80141 14.2747 6.42653 14.737 6.42653C15.1992 6.42653 15.574 6.80141 15.574 7.26375ZM17.9508 8.11347C17.8977 6.99197 17.6416 5.99855 16.8202 5.18007C16.0019 4.3616 15.0087 4.10543 13.8875 4.0492C12.7318 3.9836 9.26815 3.9836 8.11255 4.0492C6.99442 4.10231 6.00123 4.35847 5.17981 5.17695C4.35839 5.99543 4.10541 6.98884 4.04919 8.11034C3.9836 9.26621 3.9836 12.7307 4.04919 13.8865C4.10229 15.008 4.35839 16.0015 5.17981 16.8199C6.00123 17.6384 6.9913 17.8946 8.11255 17.9508C9.26815 18.0164 12.7318 18.0164 13.8875 17.9508C15.0087 17.8977 16.0019 17.6415 16.8202 16.8199C17.6385 16.0015 17.8946 15.008 17.9508 13.8865C18.0164 12.7307 18.0164 9.26933 17.9508 8.11347ZM16.4579 15.1267C16.2143 15.739 15.7427 16.2108 15.1274 16.4575C14.206 16.8231 12.0197 16.7387 11.0016 16.7387C9.98338 16.7387 7.79398 16.8199 6.87574 16.4575C6.26358 16.2139 5.79197 15.7422 5.54523 15.1267C5.17981 14.2052 5.26414 12.0184 5.26414 11C5.26414 9.98159 5.18293 7.7917 5.54523 6.87326C5.78885 6.26096 6.26046 5.78924 6.87574 5.54245C7.7971 5.17695 9.98338 5.2613 11.0016 5.2613C12.0197 5.2613 14.2091 5.18007 15.1274 5.54245C15.7395 5.78612 16.2112 6.25784 16.4579 6.87326C16.8233 7.79482 16.739 9.98159 16.739 11C16.739 12.0184 16.8233 14.2083 16.4579 15.1267Z" fill="#F9FFF9"/>
</svg>
