<svg width="19" height="32" viewBox="0 0 19 32" fill="none" xmlns="http://www.w3.org/2000/svg">
<path d="M18.1631 4.54593L6.54793 15.967L12.7549 22.0703C13.8139 23.1116 13.8139 24.7989 12.7549 25.8353C12.2254 26.3559 11.5344 26.6159 10.8383 26.6159C10.1423 26.6159 9.45543 26.3559 8.92596 25.8353L0.998695 18.0405C0.981684 18.0237 0.964692 18.0112 0.94768 17.9945L0.793841 17.8432C0.328156 17.386 0.0680231 16.8062 0.0127363 16.2144C0.00423068 16.135 0 16.0548 0 15.9754C0 15.8876 0.00423068 15.8032 0.0127363 15.7196C0.0680231 15.1237 0.328865 14.5487 0.793841 14.0908L0.94768 13.9396L0.998695 13.8936L14.3299 0.780944C15.3889 -0.260315 17.1049 -0.260315 18.1631 0.780944C18.6926 1.30157 18.9527 1.98111 18.9527 2.66553C18.9527 3.34994 18.6926 4.02948 18.1631 4.54593Z" fill="#08160A"/>
<path d="M0.946663 13.9414L0.792823 14.0926C0.327138 14.5499 0.0670055 15.1255 0.0117188 15.7214C0.0627527 15.1255 0.323594 14.5422 0.792823 14.0801C0.843857 14.0299 0.895629 13.9832 0.946663 13.9414Z" fill="#08160A"/>
<path d="M0.946663 17.9949C0.895629 17.9531 0.843857 17.9071 0.792823 17.8562C0.323594 17.3948 0.0627527 16.8107 0.0117188 16.2148C0.0670055 16.8066 0.327847 17.3857 0.792823 17.8436L0.946663 17.9949Z" fill="#08160A"/>
<path d="M18.2052 31.2178C17.1463 32.2591 15.4345 32.2591 14.3762 31.2178C13.3173 30.1765 13.3173 28.4892 14.3762 27.4528C15.4352 26.4116 17.147 26.4116 18.2052 27.4528C19.2642 28.4899 19.2642 30.1772 18.2052 31.2178Z" fill="#08160A"/>
</svg>
