<svg width="53" height="53" viewBox="0 0 53 53" fill="none" xmlns="http://www.w3.org/2000/svg">
<path d="M51.3888 51.009L51.1122 51.2924C49.4012 52.9966 46.6263 52.9966 44.914 51.2924L26.3286 32.7001L7.73628 51.2924C6.0252 52.9966 3.2503 52.9966 1.53922 51.2924L1.28331 51.0296C-0.427769 49.3185 -0.427769 46.5505 1.28331 44.8394L19.8756 26.2471L10.2002 16.5717C8.4891 14.8675 8.4891 12.0926 10.2002 10.3815L10.4767 10.098C12.1878 8.39386 14.9627 8.39386 16.6738 10.098L26.3492 19.7735L44.8394 1.28331C46.5505 -0.427769 49.3185 -0.427769 51.0296 1.28331L51.2913 1.53922C52.9955 3.2503 52.9955 6.0252 51.2913 7.73628L32.8022 26.2253L51.3876 44.8176C53.0987 46.5287 53.0987 49.2967 51.3876 51.0078L51.3888 51.009Z" fill="#F9FFF9"/>
<path d="M8.76216 4.43772C8.76216 6.81211 6.83646 8.7309 4.46896 8.7309C2.10145 8.7309 0.175781 6.81211 0.175781 4.43772C0.175781 2.06332 2.09456 0.144531 4.46896 0.144531C6.84335 0.144531 8.76216 2.07021 8.76216 4.43772Z" fill="#F9FFF9"/>
</svg>
