<svg width="25" height="25" viewBox="0 0 25 25" fill="none" xmlns="http://www.w3.org/2000/svg">
<path d="M24.3914 24.2574L24.2602 24.3922C23.448 25.2026 22.1309 25.2026 21.3182 24.3922L12.4967 15.5506L3.67198 24.3922C2.85983 25.2026 1.54274 25.2026 0.730583 24.3922L0.609115 24.2672C-0.203038 23.4535 -0.203038 22.1372 0.609115 21.3235L9.43387 12.4819L4.84146 7.88068C4.02931 7.07025 4.02931 5.75064 4.84146 4.93694L4.97273 4.80214C5.78489 3.99171 7.10198 3.99171 7.91413 4.80214L12.5065 9.40331L21.2828 0.610279C22.095 -0.203426 23.4088 -0.203426 24.2209 0.610279L24.3451 0.731979C25.154 1.54568 25.154 2.86529 24.3451 3.679L15.5694 12.4715L24.3909 21.3131C25.203 22.1268 25.203 23.4431 24.3909 24.2568L24.3914 24.2574Z" fill="#08160A"/>
<path d="M4.15946 2.11194C4.15946 3.24109 3.24544 4.15357 2.12172 4.15357C0.997993 4.15357 0.0839844 3.24109 0.0839844 2.11194C0.0839844 0.982797 0.994725 0.0703125 2.12172 0.0703125C3.24871 0.0703125 4.15946 0.986071 4.15946 2.11194Z" fill="#08160A"/>
</svg>
