<svg width="29" height="29" viewBox="0 0 29 29" fill="none" xmlns="http://www.w3.org/2000/svg">
<path d="M28.9993 2.3708C28.9993 3.02728 28.736 3.61919 28.3051 4.0465C27.8779 4.47761 27.2863 4.74097 26.6338 4.74097H9.60036C8.2917 4.74097 7.23047 3.67996 7.23047 2.37017C7.23047 1.71369 7.49751 1.12178 7.92466 0.694464C8.35181 0.263352 8.94729 0 9.59972 0H26.6332C27.9381 0 28.9993 1.061 28.9993 2.3708Z" fill="#097D5A"/>
<path d="M29 14.5075C29 15.1602 28.7367 15.7559 28.3058 16.1832C27.8786 16.6105 27.287 16.8777 26.6307 16.8777H2.36989C1.06123 16.8777 0 15.8167 0 14.5069C0 13.8542 0.263249 13.2585 0.694196 12.8312C1.12135 12.4039 1.71303 12.1367 2.36925 12.1367H26.6301C27.9388 12.1367 29 13.1977 29 14.5075Z" fill="#097D5A"/>
<path d="M29 26.6325C29 27.289 28.7367 27.8771 28.3058 28.3082C27.8786 28.7355 27.287 28.9989 26.6307 28.9989H2.36989C1.06123 28.9989 0 27.9417 0 26.6319C0 25.9754 0.263249 25.3835 0.694196 24.9562C1.12135 24.5251 1.71303 24.2617 2.36925 24.2617H26.6301C27.9388 24.2617 29 25.3227 29 26.6325Z" fill="#097D5A"/>
<path d="M4.7591 2.38241C4.7591 3.69157 3.6947 4.75701 2.38541 4.75701C1.07611 4.75701 0.0117188 3.6922 0.0117188 2.38241C0.0117188 1.07261 1.07232 0.0078125 2.38541 0.0078125C3.6985 0.0078125 4.7591 1.06882 4.7591 2.38241Z" fill="#097D5A"/>
</svg>
