<svg width="18" height="20" viewBox="0 0 18 20" fill="none" xmlns="http://www.w3.org/2000/svg">
<path fill-rule="evenodd" clip-rule="evenodd" d="M0.888672 2.15072C0.888672 1.33829 1.53537 0.679688 2.33312 0.679688H16.0553C16.8531 0.679688 17.4998 1.33829 17.4998 2.15072V18.8235C17.4998 19.5779 16.6962 20.048 16.0562 19.6679L12.2419 17.4019C11.5528 16.9925 11.32 16.0918 11.722 15.39C12.124 14.6882 13.0084 14.4512 13.6975 14.8606L14.5789 15.3842C14.5931 15.3926 14.6109 15.3822 14.6109 15.3655V3.98951C14.6109 3.7864 14.4492 3.62175 14.2498 3.62175H4.13867C3.93924 3.62175 3.77756 3.7864 3.77756 3.98951V15.1509C3.77756 15.2088 3.84034 15.2439 3.88831 15.2128L4.31123 14.9387C4.98426 14.5025 5.87705 14.7046 6.30534 15.39C6.73363 16.0754 6.53523 16.9846 5.8622 17.4208L2.45065 19.6318C1.77405 20.0703 0.888672 19.5753 0.888672 18.7585V2.15072Z" fill="#F9FFF9"/>
<path d="M10.6387 14.2867C10.6387 15.0992 9.99197 15.7578 9.19423 15.7578C8.39648 15.7578 7.74978 15.0992 7.74978 14.2867C7.74978 13.4743 8.39648 12.8157 9.19423 12.8157C9.99197 12.8157 10.6387 13.4743 10.6387 14.2867Z" fill="#F9FFF9"/>
</svg>
