<svg width="17" height="17" viewBox="0 0 17 17" fill="none" xmlns="http://www.w3.org/2000/svg">
<path d="M13.7548 11.7617L10.5658 8.57053C11.079 7.70378 11.3548 6.71262 11.3548 5.6774C11.3548 4.16197 10.7635 2.7354 9.69276 1.66205C8.61941 0.590918 7.19283 0 5.6774 0C4.16197 0 2.73541 0.591288 1.66205 1.66205C0.588702 2.7354 0 4.16197 0 5.6774C0 7.19284 0.589072 8.61941 1.66205 9.69276C2.73541 10.7639 4.15975 11.3548 5.6774 11.3548C6.71077 11.3548 7.70193 11.0793 8.56831 10.5636L11.7617 13.757C12.0372 14.0302 12.3971 14.168 12.7595 14.168C13.122 14.168 13.4797 14.0302 13.7551 13.757C14.3061 13.2061 14.3061 12.3126 13.7551 11.7613L13.7548 11.7617ZM3.4685 7.88409C2.87944 7.29539 2.55508 6.51084 2.55508 5.6774C2.55508 4.84397 2.87944 4.05978 3.4685 3.4685C4.05942 2.8798 4.84175 2.55509 5.6774 2.55509C6.51305 2.55509 7.29502 2.87943 7.88409 3.47072C8.47538 4.05941 8.79972 4.84397 8.79972 5.6774C8.79972 6.51084 8.47538 7.29502 7.88409 7.88409C6.70633 9.06408 4.64849 9.06408 3.4685 7.88409Z" fill="#F9FFF9"/>
<path d="M16.5609 16.5885C16.01 17.1372 15.1188 17.1372 14.5675 16.5885C14.0166 16.0376 14.0166 15.1442 14.5675 14.5929C15.1184 14.042 16.0096 14.042 16.5609 14.5929C17.1118 15.1438 17.1118 16.0372 16.5609 16.5885Z" fill="#F9FFF9"/>
</svg>
