<svg width="20" height="20" viewBox="0 0 20 20" fill="none" xmlns="http://www.w3.org/2000/svg">
<path d="M8.75847 13.3869C9.62418 13.3869 10.326 12.6877 10.326 11.8251C10.326 10.9625 9.62418 10.2632 8.75847 10.2632C7.89276 10.2632 7.19095 10.9625 7.19095 11.8251C7.19095 12.6877 7.89276 13.3869 8.75847 13.3869Z" fill="#F9FFF9"/>
<path d="M11.3711 19.6911C10.5704 19.3718 10.1811 18.4665 10.5016 17.6691L15.1169 5.49025L2.91867 10.0843C2.11834 10.4032 1.20981 10.0153 0.889344 9.21788C0.569299 8.42002 0.958554 7.51476 1.75888 7.19587L18.8899 0.739918C19.5161 0.480376 20.144 1.10604 19.8836 1.73002L13.4 18.8243C13.08 19.6221 12.1714 20.01 11.3707 19.6907L11.3711 19.6911Z" fill="#F9FFF9"/>
</svg>
