<svg width="58" height="50" viewBox="0 0 58 50" fill="none" xmlns="http://www.w3.org/2000/svg">
<path d="M54.1579 25.7054C53.9824 25.9016 53.8004 26.0988 53.6184 26.2885L48.2447 32.2271C46.6754 33.8405 44.0998 33.8545 42.5134 32.2572C40.9516 30.6848 40.9377 28.1401 42.4813 26.5504L47.9642 20.4911C50.6768 17.7018 50.771 13.2301 48.2886 10.2511C48.1462 10.0797 47.9867 9.91915 47.8165 9.7758C44.8577 7.27643 40.4153 7.37127 37.646 10.1024L23.5929 23.9497C22.0311 25.4952 19.4748 25.4694 17.8809 23.9034L17.8552 23.871C16.2934 22.2985 16.2806 19.8035 17.8295 18.2709L31.889 4.41061C32.0774 4.22738 32.2733 4.04416 32.4681 3.8674C38.3953 -1.39325 47.5713 -1.28439 53.5167 4.17781C53.6323 4.28451 53.7447 4.39767 53.8507 4.51407C59.2747 10.5012 59.3839 19.7388 54.159 25.7065L54.1579 25.7054Z" fill="#007F5A"/>
<path d="M37.1998 41.6853C39.4351 41.6853 41.2472 39.8609 41.2472 37.6102C41.2472 35.3596 39.4351 33.5352 37.1998 33.5352C34.9644 33.5352 33.1523 35.3596 33.1523 37.6102C33.1523 39.8609 34.9644 41.6853 37.1998 41.6853Z" fill="#18441F"/>
<path d="M31.9381 48.8448C31.1749 49.6187 30.1879 50.0067 29.1934 50.0002C28.1936 50.0002 27.1992 49.6068 26.4423 48.8319L4.39931 26.2718C4.21947 26.0886 4.0407 25.8913 3.86729 25.6941C-1.44115 19.6768 -1.28808 10.3723 4.34793 4.60405C9.06012 -0.219021 16.1969 -1.12436 21.8393 1.89451C22.0256 1.98612 22.2044 2.09174 22.3842 2.19629C22.3906 2.20275 22.397 2.20275 22.397 2.20922C23.4354 2.92487 24.1151 4.12552 24.1151 5.48999C24.1151 7.67465 22.3585 9.45299 20.1972 9.45299C19.5689 9.45299 18.9726 9.3021 18.447 9.03266C18.3571 8.97338 18.2672 8.92811 18.1773 8.88177C15.4711 7.49035 12.0927 7.94302 9.85547 10.2333C7.06048 13.1013 7.0669 17.7799 9.88116 20.6662L31.9178 43.2188C33.4378 44.774 33.4496 47.2874 31.937 48.8427L31.9381 48.8448Z" fill="#86C175"/>
</svg>
