<svg width="63" height="71" viewBox="0 0 63 71" fill="none" xmlns="http://www.w3.org/2000/svg">
<path d="M58.2631 27.2738C58.075 27.4828 57.881 27.6906 57.6859 27.8927L51.9455 34.193C50.2691 35.9052 47.5179 35.9202 45.8242 34.2253C44.1559 32.557 44.1409 29.8565 45.7895 28.1698L51.6465 21.7413C54.5444 18.7822 54.6448 14.0371 51.994 10.8771C51.8416 10.6958 51.6707 10.525 51.4895 10.3726C48.3284 7.72059 43.5832 7.82103 40.6253 10.7201L25.614 25.4116C23.9457 27.0522 21.2152 27.0245 19.5123 25.3631L19.4845 25.3284C17.8162 23.6601 17.8024 21.0128 19.4568 19.386L34.4751 4.68069C34.6771 4.48557 34.8849 4.29161 35.0939 4.10342C41.4254 -1.47877 51.2274 -1.36216 57.5785 4.43246C57.702 4.54561 57.8221 4.66568 57.9353 4.78921C63.7299 11.1415 63.8453 20.9423 58.2643 27.2738H58.2631Z" fill="#007F5A"/>
<path d="M8.18729 70.861H6.11374V69.7607C5.59882 70.4996 4.70174 70.9707 3.6869 70.9707C1.79 70.9707 0.421875 69.6499 0.421875 67.2612V62.1523H2.48042V66.946C2.48042 68.3453 3.20085 69.0992 4.28957 69.0992C5.3783 69.0992 6.11259 68.3453 6.11259 66.946V62.1523H8.18614V70.8599L8.18729 70.861Z" fill="#081A25"/>
<path d="M16.0022 66.0509C16.0022 64.6516 15.2714 63.8977 14.1676 63.8977C13.0639 63.8977 12.3042 64.6528 12.3042 66.0509V70.8607H10.2168V62.1532H12.3042V63.2373C12.8411 62.4984 13.7358 62.0273 14.7945 62.0273C16.718 62.0273 18.0896 63.3481 18.0896 65.753V70.8619H16.0022V66.0521V66.0509Z" fill="#081A25"/>
<path d="M19.9355 59.8236C19.9355 59.1009 20.4655 58.5352 21.1998 58.5352C21.934 58.5352 22.464 59.1009 22.464 59.8236C22.464 60.5464 21.9202 61.1121 21.1998 61.1121C20.4793 61.1121 19.9355 60.5464 19.9355 59.8236ZM20.1561 62.15H22.2146V70.8575H20.1561V62.15Z" fill="#081A25"/>
<path d="M24.7768 63.9534H23.7793V62.1454H24.7768V59.9922H26.9081V62.1454H28.7819V63.9534H26.9081V68.1663C26.9081 68.7482 27.1344 68.9999 27.7994 68.9999H28.7819V70.8541H27.4519C25.8494 70.8541 24.7768 70.1463 24.7768 68.1502V63.9534Z" fill="#081A25"/>
<path d="M33.5804 70.9993C31.2125 70.9993 29.4922 69.2387 29.4922 66.5036C29.4922 63.7685 31.1686 62.0078 33.5804 62.0078C35.9922 62.0078 37.5947 63.7212 37.5947 66.3142C37.5947 66.5971 37.5797 66.88 37.5358 67.1628H31.5807C31.6835 68.4513 32.5067 69.1752 33.5365 69.1752C34.4186 69.1752 34.9035 68.7041 35.169 68.1222H37.3892C36.9482 69.7259 35.5951 70.9982 33.5804 70.9982V70.9993ZM31.5958 65.6862H35.4635C35.4346 64.5386 34.5814 63.8158 33.5227 63.8158C32.5379 63.8158 31.7585 64.4912 31.5958 65.6862Z" fill="#081A25"/>
<path d="M42.0558 62.0101C43.2842 62.0101 44.1259 62.6705 44.5807 63.3933V62.151H46.5261V70.8585H44.5807V69.585C44.1259 70.3401 43.2565 70.9993 42.0419 70.9993C40.1104 70.9993 38.5645 69.1913 38.5645 66.4724C38.5645 63.7535 40.1092 62.0078 42.0558 62.0078V62.0101ZM42.5522 63.944C41.5178 63.944 40.5376 64.8237 40.5376 66.4747C40.5376 68.1257 41.5166 69.0678 42.5522 69.0678C43.5878 69.0678 44.5807 68.1557 44.5807 66.5059C44.5807 64.8561 43.6144 63.944 42.5522 63.944Z" fill="#081A25"/>
<path d="M60.1339 66.0509C60.1339 64.6678 59.4019 63.945 58.2959 63.945C57.1898 63.945 56.4428 64.6678 56.4428 66.0509V70.8607H54.3508V66.0509C54.3508 64.6678 53.6188 63.945 52.5128 63.945C51.4067 63.945 50.6448 64.6678 50.6448 66.0509V70.8607H48.5527V62.1532H50.6448V63.2061C51.1678 62.4834 52.0487 62.0273 53.0797 62.0273C54.3647 62.0273 55.4257 62.6092 55.9926 63.6933C56.5306 62.7027 57.6216 62.0273 58.8316 62.0273C60.8185 62.0273 62.2225 63.3481 62.2225 65.753V70.8619H60.1304V66.0521L60.1339 66.0509Z" fill="#081A25"/>
<path d="M40.146 44.2256C42.5339 44.2256 44.4698 42.2898 44.4698 39.9019C44.4698 37.5139 42.5339 35.5781 40.146 35.5781C37.7581 35.5781 35.8223 37.5139 35.8223 39.9019C35.8223 42.2898 37.7581 44.2256 40.146 44.2256Z" fill="#18441F"/>
<path d="M34.5259 51.8275C33.7108 52.6496 32.6567 53.0594 31.5946 53.0525C30.5266 53.0525 29.4644 52.6345 28.6563 51.8137L5.10948 27.879C4.91783 27.6838 4.72618 27.4749 4.54145 27.2659C-1.12963 20.8813 -0.965688 11.01 5.05522 4.89097C10.089 -0.225942 17.7124 -1.18652 23.7391 2.01617C23.9377 2.11315 24.1293 2.22514 24.321 2.33598C24.3279 2.3429 24.3348 2.3429 24.3348 2.34983C25.4444 3.10836 26.1706 4.38297 26.1706 5.83076C26.1706 8.14907 24.2944 10.0356 21.9854 10.0356C21.3146 10.0356 20.6773 9.87511 20.1162 9.58994C20.0203 9.52759 19.9245 9.4791 19.8287 9.42945C16.9389 7.95396 13.3286 8.43424 10.9387 10.8634C7.95311 13.9056 7.95889 18.8701 10.9665 21.9331L34.5063 45.8609C36.1296 47.5107 36.1435 50.1777 34.5271 51.8275H34.5259Z" fill="#86C175"/>
</svg>
